<?xml version="1.0" standalone="no"?>
<!DOCTYPE svg PUBLIC "-//W3C//DTD SVG 20010904//EN"
 "http://www.w3.org/TR/2001/REC-SVG-20010904/DTD/svg10.dtd">
<svg version="1.0" xmlns="http://www.w3.org/2000/svg"
 width="261.000000pt" height="261.000000pt" viewBox="0 0 261.000000 261.000000"
 preserveAspectRatio="xMidYMid meet">
<metadata>
Created by potrace 1.11, written by Peter Selinger 2001-2013
</metadata>
<g transform="translate(0.000000,261.000000) scale(0.100000,-0.100000)"
fill="#000000" stroke="none">
<path d="M630 2298 c-30 -4 -100 -7 -155 -6 -71 1 -117 -3 -158 -15 -82 -25
-82 -23 -102 -312 -2 -22 -4 -92 -5 -155 0 -63 -5 -164 -10 -225 -24 -283 -34
-453 -32 -550 1 -38 3 -187 6 -330 5 -374 13 -387 226 -391 103 -1 152 -5 285
-21 22 -3 179 -6 350 -8 171 -1 337 -6 370 -10 71 -9 55 -9 320 -2 116 3 233
10 261 16 28 5 72 11 98 12 26 2 49 6 52 11 3 4 19 8 36 8 44 0 161 37 190 60
14 10 31 34 38 52 6 18 17 43 22 55 10 20 17 324 11 428 -3 40 3 223 11 365 2
41 0 107 -4 145 -16 136 -22 262 -25 493 -3 221 -4 235 -27 280 -17 34 -34 52
-63 66 -22 11 -49 24 -60 29 -22 11 -391 11 -485 1 -85 -10 -128 -48 -134
-120 -4 -41 15 -67 61 -82 19 -6 119 -10 241 -9 239 1 255 -3 268 -70 4 -21 7
-258 5 -528 -3 -652 -3 -644 -1 -772 2 -123 -6 -152 -53 -187 -24 -18 -41 -20
-125 -19 -53 1 -214 2 -357 1 -1329 -4 -1266 -8 -1301 79 -26 66 -26 258 1
743 2 30 4 197 5 370 2 335 6 366 50 390 14 7 100 13 238 15 120 2 225 4 235
4 30 2 57 38 57 79 0 53 -31 79 -121 102 -77 20 -125 22 -219 8z"/>
<path d="M1245 2030 c-239 -59 -332 -189 -269 -377 48 -140 148 -204 208 -133
22 27 24 34 14 63 -6 17 -17 39 -24 47 -28 32 -41 81 -34 122 22 119 212 179
324 101 65 -45 110 -158 91 -230 -16 -67 -130 -139 -228 -145 -65 -4 -69 -15
-70 -210 -1 -194 6 -272 29 -306 29 -45 93 -48 120 -7 12 19 14 49 9 173 -6
143 -5 152 14 171 11 11 33 23 48 27 78 18 190 141 226 246 29 87 3 227 -60
322 -27 42 -35 50 -106 99 -75 51 -181 65 -292 37z"/>
<path d="M656 1190 c-91 -8 -118 -57 -64 -117 22 -23 39 -29 129 -38 31 -3 67
-8 80 -11 13 -2 71 -6 128 -9 79 -3 111 0 133 11 33 17 51 55 42 90 -11 44
-41 54 -172 58 -67 3 -129 7 -139 10 -31 10 -75 12 -137 6z"/>
<path d="M1653 1157 c-59 -22 -75 -51 -60 -108 9 -35 49 -52 106 -43 54 9 65
9 191 -1 52 -5 106 -9 120 -10 39 -3 78 21 85 53 7 35 -8 77 -32 90 -44 24
-359 38 -410 19z"/>
</g>
</svg>
